name Walk3.mot
datacolumns 19
datarows 12
range 1.33500000 1.39000000
endheader

                time	   L_ground_force_vx	   L_ground_force_vy	   L_ground_force_vz	   L_ground_force_px	   L_ground_force_py	   L_ground_force_pz	   R_ground_force_vx	   R_ground_force_vy	   R_ground_force_vz	   R_ground_force_px	   R_ground_force_py	   R_ground_force_pz	   L_ground_torque_x	   L_ground_torque_y	   L_ground_torque_z	   R_ground_torque_x	   R_ground_torque_y	   R_ground_torque_z	
          1.33500000	          0.02238022	          0.05149042	         -0.00424616	         -0.00027301	          0.00000000	         -0.00001009	        -13.22041175	        397.49005281	        -34.36522510	          0.33625876	          0.00000000	          0.09174576	          0.00000000	         -0.00040668	          0.00000000	          0.00000000	          4.98504840	          0.00000000	
          1.34000000	          0.01350227	          0.02842113	         -0.00287558	         -0.00021038	          0.00000000	         -0.00000635	        -12.38287292	        391.86227909	        -32.38853187	          0.33946502	          0.00000000	          0.09162492	          0.00000000	         -0.00027920	          0.00000000	          0.00000000	          4.67587844	          0.00000000	
          1.34500000	          0.00674114	          0.01137947	         -0.00176924	         -0.00015358	          0.00000000	         -0.00000345	        -11.46299825	        387.95400573	        -30.51223921	          0.34213766	          0.00000000	          0.09145905	          0.00000000	         -0.00017537	          0.00000000	          0.00000000	          4.37942227	          0.00000000	
          1.35000000	          0.00187221	         -0.00044899	         -0.00091983	         -0.00010501	          0.00000000	         -0.00000131	        -10.45065224	        385.55461341	        -28.75040382	          0.34431683	          0.00000000	          0.09125930	          0.00000000	         -0.00009491	          0.00000000	          0.00000000	          4.09048398	          0.00000000	
          1.35500000	         -0.00139820	         -0.00799884	         -0.00030238	         -0.00006555	          0.00000000	          0.00000016	         -9.34062260	        384.45159579	        -27.10911354	          0.34605693	          0.00000000	          0.09103605	          0.00000000	         -0.00003581	          0.00000000	          0.00000000	          3.80457526	          0.00000000	
          1.36000000	         -0.00338487	         -0.01220781	          0.00011750	         -0.00003507	          0.00000000	          0.00000109	         -8.13151933	        384.44831957	        -25.59223437	          0.34742159	          0.00000000	          0.09079788	          0.00000000	          0.00000492	          0.00000000	          0.00000000	          3.51766785	          0.00000000	
          1.36500000	         -0.00439119	         -0.01394145	          0.00037746	         -0.00001274	          0.00000000	          0.00000160	         -6.82656745	        385.38010200	        -24.20460559	          0.34847897	          0.00000000	          0.09055231	          0.00000000	          0.00003066	          0.00000000	          0.00000000	          3.22669765	          0.00000000	
          1.37000000	         -0.00468923	         -0.01395059	          0.00051432	          0.00000258	          0.00000000	          0.00000180	         -5.43226504	        387.12300750	        -22.94957786	          0.34929392	          0.00000000	          0.09030762	          0.00000000	          0.00004473	          0.00000000	          0.00000000	          2.92977619	          0.00000000	
          1.37500000	         -0.00450949	         -0.01285314	          0.00056141	          0.00001220	          0.00000000	          0.00000179	         -3.95524593	        389.59302310	        -21.82599402	          0.34992281	          0.00000000	          0.09007346	          0.00000000	          0.00005022	          0.00000000	          0.00000000	          2.62576588	          0.00000000	
          1.38000000	         -0.00403758	         -0.01113283	          0.00054721	          0.00001741	          0.00000000	          0.00000164	         -2.39992297	        392.73790101	        -20.82774996	          0.35041358	          0.00000000	          0.08985821	          0.00000000	          0.00004977	          0.00000000	          0.00000000	          2.31363249	          0.00000000	
          1.38500000	         -0.00341564	         -0.00914916	          0.00049482	          0.00001937	          0.00000000	          0.00000141	         -0.76751516	        396.52751506	        -19.94549566	          0.35080673	          0.00000000	          0.08966797	          0.00000000	          0.00004554	          0.00000000	          0.00000000	          1.99166293	          0.00000000	
          1.39000000	         -0.00274666	         -0.00715348	          0.00042209	          0.00001910	          0.00000000	          0.00000116	          0.94620781	        400.94306428	        -19.16982987	          0.35113316	          0.00000000	          0.08950609	          0.00000000	          0.00003923	          0.00000000	          0.00000000	          1.65762115	          0.00000000	
